<?xml version="1.0" encoding="UTF-8"?>
<svg version="1.1" xmlns="http://www.w3.org/2000/svg" width="512" height="512">
<path d="M0 0 C1.01790619 0.00215515 2.03581238 0.0043103 3.08456421 0.00653076 C17.69363523 0.05620146 32.02575853 0.30709809 46.375 3.3125 C47.34985352 3.51117676 48.32470703 3.70985352 49.32910156 3.91455078 C88.37782454 12.08284366 124.83813271 27.70153311 156.375 52.3125 C157.27089844 52.99699219 158.16679687 53.68148437 159.08984375 54.38671875 C165.85375932 59.65466563 172.17242313 65.40219115 178.375 71.3125 C178.97538086 71.88419922 179.57576172 72.45589844 180.19433594 73.04492188 C188.53034882 81.04095281 196.17384608 89.25373428 203.05566406 98.53564453 C204.41568182 100.36728947 205.79649374 102.18190483 207.1796875 103.99609375 C213.5480373 112.42343333 219.17969786 121.11991515 224.375 130.3125 C224.73803223 130.94285156 225.10106445 131.57320312 225.47509766 132.22265625 C247.08503355 169.97093421 256.85198837 212.73995161 256.6875 255.9375 C256.68534485 256.95540619 256.6831897 257.97331238 256.68096924 259.02206421 C256.63129854 273.63113523 256.38040191 287.96325853 253.375 302.3125 C253.07698486 303.77478027 253.07698486 303.77478027 252.77294922 305.26660156 C244.60465634 344.31532454 228.98596689 380.77563271 204.375 412.3125 C203.69050781 413.20839844 203.00601562 414.10429687 202.30078125 415.02734375 C197.03283437 421.79125932 191.28530885 428.10992313 185.375 434.3125 C184.51745117 435.21307129 184.51745117 435.21307129 183.64257812 436.13183594 C175.6343274 444.48058817 167.41011118 452.12586051 158.11230469 459.01513672 C156.39124144 460.30037142 154.698612 461.6167016 153.0078125 462.94140625 C122.05599233 486.84699932 84.66878791 502.15926624 46.375 509.3125 C45.56998047 509.47476074 44.76496094 509.63702148 43.93554688 509.80419922 C13.88950647 515.6788185 -20.75595352 514.58629779 -50.625 508.3125 C-52.14794678 507.99901611 -52.14794678 507.99901611 -53.70166016 507.67919922 C-90.93790584 499.76731191 -125.56559467 483.59756002 -155.625 460.3125 C-156.97271484 459.28382813 -156.97271484 459.28382813 -158.34765625 458.234375 C-165.10647392 452.96442525 -171.42437048 447.22095326 -177.625 441.3125 C-178.22538086 440.74080078 -178.82576172 440.16910156 -179.44433594 439.58007812 C-187.79308817 431.5718274 -195.43836051 423.34761118 -202.32763672 414.04980469 C-203.61287142 412.32874144 -204.9292016 410.636112 -206.25390625 408.9453125 C-230.15949932 377.99349233 -245.47176624 340.60628791 -252.625 302.3125 C-252.78726074 301.50748047 -252.94952148 300.70246094 -253.11669922 299.87304688 C-258.58955505 271.88184616 -258.4709259 238.22377604 -252.625 210.3125 C-252.42632324 209.33764648 -252.22764648 208.36279297 -252.02294922 207.35839844 C-241.7272891 158.1397446 -219.29081567 114.71000304 -184.625 78.3125 C-184.05475098 77.71356934 -183.48450195 77.11463867 -182.89697266 76.49755859 C-174.89943802 68.16006957 -166.68545927 60.51490955 -157.40185547 53.63183594 C-155.57021053 52.27181818 -153.75559517 50.89100626 -151.94140625 49.5078125 C-143.51406667 43.1394627 -134.81758485 37.50780214 -125.625 32.3125 C-124.99464844 31.94946777 -124.36429688 31.58643555 -123.71484375 31.21240234 C-85.96656579 9.60246645 -43.19754839 -0.16448837 0 0 Z " fill="#22BB33" transform="translate(255.625,-0.3125)"/>
<path d="M0 0 C4.00811233 1.70083375 7.02648393 3.96563918 10 7.125 C11.58524992 11.68259353 11.8090016 16.24791189 11 21 C8.29731336 26.37148857 5.127881 30.30328777 0.87150574 34.50944519 C0.26049414 35.12513676 -0.35051745 35.74082832 -0.98004454 36.3751772 C-3.01715579 38.42419771 -5.06475318 40.46239417 -7.11254883 42.50073242 C-8.58021721 43.97246829 -10.04724713 45.44484108 -11.51368713 46.9178009 C-15.49026482 50.90803673 -19.47625176 54.88874654 -23.46441865 58.86739516 C-27.64033706 63.03570929 -31.80892067 67.21134834 -35.97868347 71.38581848 C-42.98178362 78.39437392 -49.99117943 85.39658625 -57.00415039 92.39526367 C-65.10772067 100.48250796 -73.20042695 108.5805029 -81.28757459 116.68416709 C-88.23589756 123.64611131 -95.19005906 130.60218293 -102.1491186 137.55339509 C-106.30344731 141.70305084 -110.45573225 145.85469712 -114.60276222 150.01164818 C-118.50215075 153.91971328 -122.40882554 157.82034622 -126.32120323 161.71540642 C-127.75444043 163.14468253 -129.18514135 164.57650723 -130.61308289 166.01107407 C-132.56537252 167.9715838 -134.52670609 169.92258456 -136.49055481 171.87150574 C-137.05107868 172.43872178 -137.61160256 173.00593782 -138.18911201 173.59034222 C-142.59781804 177.93445711 -147.86955098 182.55022472 -154.375 182.625 C-163.1755326 182.01727273 -169.86804245 174.57484259 -175.76708984 168.62109375 C-176.48534943 167.90809113 -177.20360901 167.1950885 -177.94363403 166.46047974 C-180.29028294 164.12691973 -182.6259217 161.78269592 -184.9609375 159.4375 C-186.59954813 157.80091262 -188.23860367 156.1647706 -189.87808228 154.52905273 C-193.30040801 151.11113474 -196.71728678 147.68788781 -200.13037109 144.26074219 C-204.50151289 139.87246906 -208.88604082 135.49785706 -213.2747097 131.12712097 C-216.65675215 127.75592339 -220.03161159 124.37760795 -223.40434647 120.99710083 C-225.0184587 119.38099067 -226.6347933 117.76709691 -228.2533989 116.15548706 C-230.51270357 113.90381254 -232.76214985 111.64272484 -235.00927734 109.37890625 C-236.00982147 108.38747116 -236.00982147 108.38747116 -237.03057861 107.37600708 C-241.97290877 102.36555719 -245.42698597 97.81776736 -245.4375 90.5 C-245.27642056 85.55351882 -244.50522616 82.68498134 -241 79 C-237.01380906 75.78077238 -233.27233155 74.31701218 -228.02488708 74.61616135 C-221.10961233 75.92702444 -216.07305286 80.35056468 -211.30859375 85.23730469 C-210.69295059 85.85236374 -210.07730743 86.46742279 -209.44300842 87.10112 C-207.43153089 89.11536104 -205.43455794 91.14334538 -203.4375 93.171875 C-202.03733617 94.57950735 -200.63628048 95.98625308 -199.234375 97.39215088 C-195.56273599 101.07899793 -191.90327341 104.77770118 -188.24627686 108.47906494 C-184.50614612 112.26025246 -180.75454117 116.03001794 -177.00390625 119.80078125 C-169.65804156 127.18943157 -162.32499892 134.59066721 -155 142 C-147.93547299 136.23296258 -141.61663603 129.72741955 -135.19921875 123.26513672 C-133.90930792 121.9700265 -132.61915032 120.67516202 -131.32876587 119.38052368 C-128.56049917 116.60235212 -125.79370651 113.82272383 -123.02798462 111.04201889 C-118.65208501 106.64297323 -114.27123585 102.24887937 -109.8894043 97.85574341 C-97.43333061 85.36630196 -84.98146131 72.87269015 -72.54003906 60.36865234 C-65.66102149 53.45509713 -58.77664655 46.54692411 -51.8862772 39.64468205 C-47.53098237 35.28129894 -43.18233501 30.91143128 -38.83847046 26.53667045 C-36.13334878 23.81552065 -33.42193201 21.10071249 -30.70869064 18.38766098 C-29.4544041 17.13095688 -28.20268738 15.87168169 -26.95378494 14.60962677 C-25.24472489 12.88332586 -23.52656161 11.16660857 -21.8059082 9.45187378 C-21.07324753 8.70508214 -21.07324753 8.70508214 -20.32578564 7.94320381 C-14.47808475 2.1622285 -8.37580166 -1.6665403 0 0 Z " fill="#FBFDFB" transform="translate(373,165)"/>
</svg>
